<svg xmlns="http://www.w3.org/2000/svg" viewBox="0 0 300 110" fill="none">

  <defs>
    <filter id="softShadow" x="-20%" y="-20%" width="140%" height="150%">
      <feDropShadow dx="0" dy="2" stdDeviation="2" flood-color="#5B432A" flood-opacity="0.12"/>
    </filter>
    <linearGradient id="bodyGrad" x1="0" y1="0" x2="0" y2="1">
      <stop offset="0%" stop-color="#D7D9A6"/>
      <stop offset="100%" stop-color="#B7C58D"/>
    </linearGradient>
    <linearGradient id="creamGrad" x1="0" y1="0" x2="0" y2="1">
      <stop offset="0%" stop-color="#FFF8E8"/>
      <stop offset="100%" stop-color="#EBDDC3"/>
    </linearGradient>
  </defs>


  <g transform="translate(10 80) scale(0.82)" stroke="#7E9859" stroke-width="1.2" stroke-linecap="round" fill="none">
      <path d="M2 24c7-10 8-17 8-23"/>
      <path d="M12 24c2-9 6-14 13-19"/>
      <path d="M23 24c-2-8-1-14 3-20"/>
      <path d="M32 24c4-8 8-11 14-12"/>
      <path d="M-2 24c5-6 8-8 13-9"/>
      <path d="M46 24c-6-5-10-6-16-5"/>
      <ellipse cx="20" cy="24" rx="28" ry="4" fill="#D6C99D" opacity="0.3" stroke="none"/>
    </g>
  <g transform="translate(52 18) scale(0.68)">
      <ellipse cx="38" cy="72" rx="29" ry="5" fill="#D8C7A9" opacity="0.35"/>
      <path d="M14 47c0-18 12-31 28-31s27 14 27 32c0 16-10 25-28 25-17 0-27-9-27-26Z" fill="#C8D09A" stroke="#87945F" stroke-width="1.5"/>
      <path d="M20 38c-8 3-11 9-9 15 2 5 7 6 12 2" fill="#B7C58D" stroke="#87945F" stroke-width="1.3" stroke-linecap="round"/>
      <path d="M62 38c7 3 9 9 7 14-2 4-6 5-10 1.5" fill="#B7C58D" stroke="#87945F" stroke-width="1.3" stroke-linecap="round"/>
      <ellipse cx="34" cy="48" rx="2.4" ry="3" fill="#5C4A34"/>
      <ellipse cx="49" cy="48" rx="2.4" ry="3" fill="#5C4A34"/>
      <path d="M38.5 57c2 1.4 4.2 1.4 6.2 0" stroke="#5C4A34" stroke-width="1.4" stroke-linecap="round"/>
      <circle cx="25" cy="54" r="2.6" fill="#E6B99B" opacity="0.45"/>
      <circle cx="58" cy="54" r="2.6" fill="#E6B99B" opacity="0.45"/>
      <path d="M39 17c.8-6-3.3-9.5-9.4-10 1.1 6.2 4.5 9.8 9.4 10Z" fill="#8FA36A" stroke="#66784F" stroke-width="1.1"/>
      <path d="M41 17c2.5-5.7 7.5-7.8 13-6.5-2.6 5.1-7.2 7.1-13 6.5Z" fill="#A6B978" stroke="#66784F" stroke-width="1.1"/>
    </g>
  <g transform="translate(142 24) scale(.78)"><g transform="translate(0 0) scale(1)" filter="url(#softShadow)">
      <path d="M16 41h94v45H16z" fill="#D4B47B" stroke="#75512F" stroke-width="1.6"/>
      <path d="M16 41h94v16H16z" fill="#B9864F" stroke="#75512F" stroke-width="1.3"/>
      <path d="M37 41c3-15 47-15 51 0" stroke="#75512F" stroke-width="5" stroke-linecap="round"/>
      <path d="M58 31l14 42" stroke="#75512F" stroke-width="5" stroke-linecap="round"/>
      <path d="M50 28l13 9" stroke="#9DA48E" stroke-width="8" stroke-linecap="round"/>
      <path d="M88 28l-15 28" stroke="#75512F" stroke-width="5" stroke-linecap="round"/>
      <path d="M89 21l11 7-6 9-11-7z" fill="#AEB0A0" stroke="#75512F" stroke-width="1"/>
      <path d="M23 64h78" stroke="#75512F" stroke-width="1" opacity="0.35"/>
      <path d="M22 59c11 7 20 7 28 0 15 7 27 4 42-2" stroke="#5F7F46" stroke-width="2" opacity="0.45"/>
    </g></g>
  <path d="M244 70c10-11 21-11 31-3" stroke="#7E9859" stroke-width="2" stroke-linecap="round" opacity="0.7"/>

</svg>
